<svg version="1" xmlns="http://www.w3.org/2000/svg" width="833.333" height="833.333" viewBox="0 0 625.000000 625.000000"><path d="M294.5 57.6c-69.3 7.2-126.8 40.9-162.8 95.4-42.2 63.9-42 146.1.3 211 3.4 5.2 16.4 22.3 28.9 38 24.7 31 84.3 106.8 126 160.2 14.5 18.6 26.7 33.8 27.1 33.8.4 0 2-1.7 3.6-3.8 4-5.3 17.3-21.4 19.2-23.2.8-.8.5 0-.7 1.7-1.9 2.9-2 3.3-.6 3.3 2 0 7.5-3.1 7.5-4.2 0-.4.9-.8 2-.8s2-.5 2-1c0-.6.7-1 1.5-1s1.5-.5 1.5-1.1c0-1.4 2.5-3.9 3.9-3.9.6 0 1.1-.3 1.1-.8.1-1.2 6.7-8.2 7.9-8.2.6 0 1.1-.4 1.1-.9 0-.4 1.4-2.2 3-3.9 1.7-1.8 3-3.6 3-4.2 0-.6 1.6-2.6 3.5-4.4 1.9-1.9 3.5-4 3.5-4.6 0-.7 1.6-2.7 3.5-4.6 1.9-1.8 3.5-3.5 3.5-3.9 0-.7 1.4-2.4 4.8-6 1.2-1.3 2.2-2.8 2.2-3.2 0-.5.9-1.5 2-2.3 1.1-.8 2-2 2-2.7 0-.7 1.8-3.1 4-5.3 2.2-2.2 4-4.4 4-4.9 0-.4 1.4-2.2 3-3.9 1.7-1.8 3-3.4 3-3.7 0-.7 1.4-2.5 4.8-6 1.2-1.3 2.2-2.7 2.2-3 0-.5 1.1-1.8 6.8-8.1 1.2-1.4 2.2-2.9 2.2-3.4 0-.6.5-1 1-1 .6 0 1-.6 1-1.3 0-.7 1.6-3 3.5-5s3.5-3.9 3.5-4.2c0-.3.8-1.3 1.8-2.3 2.6-2.9 5.2-6.2 5.2-6.7s1.1-1.9 6.8-8.1c1.2-1.4 2.2-2.9 2.2-3.4 0-.6.4-1 .9-1s1.2-.8 1.6-1.9c.3-1 1.8-3.2 3.3-4.7 1.5-1.6 4.1-4.7 5.7-6.9 1.6-2.2 3.8-4.7 4.7-5.6 1-.9 1.8-1.9 1.8-2.3 0-.7 1.3-2.4 4.8-6.1 1.2-1.3 2.2-2.7 2.2-3 0-.7 1.4-2.4 4.8-6 1.2-1.3 2.2-2.9 2.2-3.5 0-.5.4-1 .9-1s1.2-.8 1.6-1.9c.3-1 1.9-3.3 3.5-5 1.7-1.7 3-3.8 3-4.6 0-.9.4-1.4.9-1 .5.3 1.2-.4 1.6-1.5.3-1.1 1.1-2 1.6-2s.9-.9.9-2 .5-2 1-2c.6 0 1-.6 1-1.4 0-.8.3-1.6.8-1.8 1-.4 6.2-8.6 6.2-9.8 0-.5.5-1 1-1 .6 0 1-.9 1-2s.4-2 .9-2 1.2-1.1 1.5-2.5c.4-1.4 1.1-2.5 1.6-2.5.6 0 1-.9 1-1.9 0-1.1.4-2.3 1-2.6.6-.3 1-1.5 1-2.5s.4-2 .8-2.2c1.1-.5 6.2-12.6 6.2-14.9 0-1 .5-1.9 1-1.9.6 0 1-1.4 1-3 0-1.7.4-3 .9-3s1.1-1.7 1.4-3.8c.3-2 1.3-6.6 2.2-10.2 1-3.6 2-9.5 2.2-13.3.3-3.7.9-6.7 1.4-6.7.5 0 .9-8.5.9-20.1 0-13.1-.3-19.8-1-19.4-.6.4-1.1-2.1-1.2-6.7-.1-6.9-.2-7-.7-2.3-.6 4.9-.6 4.8-1.3-3.2-1.7-19.5-8.7-43.2-18.8-63.9-30.4-62.3-89.7-104.7-162-115.9-10.1-1.5-44-2.8-52.5-1.9zm40.5 52.9c48.4 6.6 90.2 36 112.9 79.5 17.9 34.4 21.6 76.1 9.9 113-7 21.8-18.7 41.6-34.7 58.2-14.4 15.1-26.8 24-45.3 32.8-6.9 3.2-11.3 5.9-12.6 7.7-6.1 8.9-5.5 20.2 1.8 30.7 1.6 2.5 3 4.7 3 5 0 1-19.3-.3-27.6-1.9-20.1-3.8-41.7-14-57.1-27.1-4.1-3.5-7.5-5.2-16-8-51.3-17-89-59.2-100.5-112.7-2.9-13.7-3.2-42.6-.5-56.2 11.9-59 54.8-104.2 112-118 18.5-4.5 36.7-5.5 54.7-3zm194.7 148.7c-.2 1.3-.4.3-.4-2.2s.2-3.5.4-2.3c.2 1.3.2 3.3 0 4.5zm-1 16c-.3.7-.5.2-.5-1.2s.2-1.9.5-1.3c.2.7.2 1.9 0 2.5zm-1 9c-.3.8-.6.5-.6-.6-.1-1.1.2-1.7.5-1.3.3.3.4 1.2.1 1.9z"/><path d="M267 187.5c-24.5 12.2-45.2 23.1-46 24-1.3 1.5-1.2 1.9.9 3.6 1.3 1.1 3.4 1.9 4.7 1.9 2.2 0 2.4.4 2.4 4.5 0 4.8 1.7 6.7 7.3 8l2.7.7V299l-2.7-.6c-4.3-.8-6.5 1.5-7.1 7.4-.4 4.6-.7 5.2-3.3 5.7-4 .9-5.9 3.1-5.9 6.9 0 1.8-.7 4.1-1.5 5.2-.8 1-1.5 3.1-1.5 4.6v2.8h191v-2.9c0-1.6-.6-3.1-1.5-3.5-1.1-.4-1.5-2-1.5-5.4 0-5.5-1-6.9-5.5-7.4-3-.3-3.6-1.2-5-8.1-.4-2.2-1.5-3.3-4.5-4.4l-4-1.6v-68.9l2.8.6c4.3 1 6.4-1.2 6.6-7 .1-4.5.3-4.9 2.6-5.2 6.2-.6 10-2.3 10-4.3 0-1.6-3-3.5-15.2-9.3-8.4-4.1-29.8-14.4-47.6-23-17.7-8.6-32.6-15.6-33-15.5-.4 0-20.7 10.1-45.2 22.4zm121 32v2.5H236v-5h152v2.5zM270.5 264v34.5l-5.7.3-5.8.3v-70.2l5.8.3 5.7.3V264zm31.5-1c0 18.7-.1 34.3-.2 34.6-.2.4-2.7.7-5.6.8l-5.2.1V229h11v34zm32 1v35.1l-5.7-.3-5.8-.3-.3-33.5c-.1-18.4 0-34.1.3-34.7.3-.8 2.4-1.3 6-1.3h5.5v35zm32 0v35.1l-5.7-.3-5.8-.3-.3-33.5c-.1-18.4 0-34.1.3-34.7.3-.8 2.4-1.3 6-1.3h5.5v35zm23 44.5v2.5H236v-5h153v2.5z"/></svg>